<svg width="48" height="48" viewBox="0 0 48 48" fill="none" xmlns="http://www.w3.org/2000/svg">
<rect x="13" y="5" width="32" height="32" rx="16" fill="#E5FCE3"/>
<path d="M41 1L11 1C8.5 1 7 2.48952 7 4.94286M7 4.94286C7 7.39619 8.5 9 11 9H41V47H10.443C9.29536 47 7 46.2114 7 43.0571C7 39.9029 7 16.3333 7 4.94286ZM41 4.94286H12" stroke="#22222C" stroke-width="2" stroke-linecap="round" stroke-linejoin="round"/>
<path d="M33.7022 24.5777C34.2626 26.8223 34.0274 29.1919 33.0366 31.2825C32.0458 33.3732 30.3608 35.0556 28.2686 36.0432C26.1764 37.0307 23.8065 37.2623 21.5627 36.6984C19.3189 36.1346 17.3401 34.8101 15.9633 32.9508C14.5866 31.0915 13.8971 28.8123 14.0124 26.5016C14.1277 24.1909 15.0407 21.9917 16.5957 20.2787C18.1507 18.5657 20.2515 17.4448 22.5403 17.1071C24.8291 16.7694 27.1642 17.2357 29.1476 18.4267" stroke="#22222C" stroke-width="2"/>
<path d="M18.5 25.5L23 30L33.5 19.5" stroke="#22222C" stroke-width="2" stroke-linecap="round"/>
</svg>
