<svg width="48" height="48" viewBox="0 0 48 48" fill="none" xmlns="http://www.w3.org/2000/svg">
<rect opacity="0.16" x="8" y="14" width="32" height="32" rx="16" fill="#EF5350"/>
<path d="M37.56 10.42C34.89 13.9 29.94 14.61 29.94 14.61C29.94 14.61 29.33 9.67 32 6.19C34.66 2.71 39.61 2 39.61 2C39.61 2 40.23 6.94 37.56 10.42Z" stroke="#22222C" stroke-width="2" stroke-miterlimit="10" stroke-linecap="round" stroke-linejoin="round"/>
<path d="M29.88 18.05C29.88 14.97 27.89 10.75 24.12 7.72998" stroke="#22222C" stroke-width="2" stroke-miterlimit="10" stroke-linecap="round" stroke-linejoin="round"/>
<path d="M12 21.5601H5C3.34 21.5601 2 22.9001 2 24.5601C2 26.2201 3.34 27.5601 5 27.5601H38V39.5601H5C3.34 39.5601 2 38.2201 2 36.5601V24.5601" stroke="#22222C" stroke-width="2" stroke-miterlimit="10" stroke-linecap="round" stroke-linejoin="round"/>
<path d="M14.63 24.56C15.33 21.9 16.68 19.46 19 18.05C23.34 15.41 26.71 18.05 29.88 18.05C33.05 18.05 36.27 15.66 40.76 18.05C45.23 20.43 47.26 27.21 45.18 34.62C43.24 41.53 38.15 45.56 34.23 45.56C32.61 45.56 31.21 44.41 29.88 44.41C28.55 44.41 27.15 45.56 25.53 45.56C23.47 45.56 21.08 44.44 19 42.38" stroke="#22222C" stroke-width="2" stroke-miterlimit="10" stroke-linecap="round" stroke-linejoin="round"/>
<path d="M14 33.5601V39.5601" stroke="#22222C" stroke-width="2" stroke-miterlimit="10" stroke-linecap="round" stroke-linejoin="round"/>
<path d="M14 33.5601V39.5601" stroke="#22222C" stroke-width="2" stroke-miterlimit="10" stroke-linecap="round" stroke-linejoin="round"/>
<path d="M8 33.5601V39.5601" stroke="#22222C" stroke-width="2" stroke-miterlimit="10" stroke-linecap="round" stroke-linejoin="round"/>
<path d="M20 33.5601V39.5601" stroke="#22222C" stroke-width="2" stroke-miterlimit="10" stroke-linecap="round" stroke-linejoin="round"/>
<path d="M26 33.5601V39.5601" stroke="#22222C" stroke-width="2" stroke-miterlimit="10" stroke-linecap="round" stroke-linejoin="round"/>
<path d="M32 33.5601V39.5601" stroke="#22222C" stroke-width="2" stroke-miterlimit="10" stroke-linecap="round" stroke-linejoin="round"/>
</svg>
