<svg width="74" height="33" viewBox="0 0 74 33" fill="none" xmlns="http://www.w3.org/2000/svg">
<path d="M26.2031 10.2698C25.3687 1.74528 14.7028 -2.23132 7.70305 1.26978C-2.35131 6.29873 -1.30251 13.2707 3.70011 21.2698C8.70273 29.2689 13.1969 29.2695 19.6983 26.2699C26.1996 23.2703 27.0375 18.7943 26.2031 10.2698Z" fill="#E5E6AF"/>
<path fill-rule="evenodd" clip-rule="evenodd" d="M4.37515 1.26111C3.89453 0.780477 3.11527 0.780477 2.63464 1.26111C2.15401 1.74174 2.15401 2.52099 2.63464 3.00162L12.1206 12.4876L12.1205 30.8479C12.1205 31.5276 12.6715 32.0787 13.3512 32.0787C14.031 32.0787 14.582 31.5277 14.582 30.8479L14.582 15.6851L18.4381 19.5411C18.5983 19.7013 18.5983 19.9611 18.4381 20.1213L15.7651 22.7943C15.2844 23.2749 15.2844 24.0542 15.7651 24.5348C16.2457 25.0154 17.025 25.0154 17.5056 24.5348L20.1786 21.8618C21.3001 20.7403 21.3001 18.9221 20.1786 17.8006L14.7907 12.4127L23.7919 3.41154C24.2725 2.93091 24.2725 2.15166 23.7919 1.67103C23.3113 1.1904 22.532 1.1904 22.0514 1.67103L13.4182 10.3042L4.37515 1.26111ZM13.1461 7.05408C14.6188 7.05408 15.8127 5.86022 15.8127 4.38751C15.8127 2.9148 14.6188 1.72093 13.1461 1.72093C11.6734 1.72093 10.4795 2.9148 10.4795 4.38751C10.4795 5.86022 11.6734 7.05408 13.1461 7.05408Z" fill="#FF9B4E"/>
<path d="M32.2539 5.77171H34.5923C36.2374 5.77171 37.1893 4.87153 37.1893 3.31949C37.1893 1.85023 36.2685 1.01213 34.6337 1.01213H32.3366C31.602 1.01213 31.2812 1.33288 31.2812 2.12959V8.68954C31.2812 8.9896 31.4778 9.13446 31.7676 9.13446C32.0469 9.13446 32.2539 8.9896 32.2539 8.69989V5.77171ZM32.2539 4.90257V2.25376C32.2539 2.02612 32.3573 1.89161 32.585 1.89161H34.5716C35.6063 1.89161 36.1753 2.40896 36.1753 3.34018C36.1753 4.34383 35.6166 4.90257 34.5716 4.90257H32.2539Z" fill="#22222C"/>
<path d="M40.7613 3.19533C39.0851 3.19533 38.0814 4.40592 38.0814 6.19593C38.0814 8.03769 39.0747 9.23793 40.782 9.23793C42.3961 9.23793 43.3894 7.9963 43.3894 6.19593C43.3894 4.39557 42.4168 3.19533 40.7613 3.19533ZM40.7923 3.99204C41.8477 3.99204 42.4375 4.88187 42.4375 6.18559C42.4375 7.56173 41.8477 8.44121 40.7199 8.44121C39.6542 8.44121 39.0334 7.54103 39.0334 6.22697C39.0334 4.85083 39.6749 3.99204 40.7923 3.99204Z" fill="#22222C"/>
<path d="M46.8095 6.55807C47.751 6.74432 48.0201 7.02369 48.0201 7.53069C48.0201 8.05838 47.482 8.42052 46.6543 8.42052C45.8369 8.42052 45.4126 8.12046 45.2264 7.52034C45.1643 7.32375 44.9781 7.24097 44.7815 7.24097C44.7401 7.24097 44.6884 7.25132 44.6366 7.26167C44.44 7.30305 44.2641 7.44791 44.2641 7.65485C44.2641 7.69624 44.2745 7.73762 44.2848 7.78936C44.5538 8.71024 45.3299 9.23793 46.6543 9.23793C48.1028 9.23793 48.9513 8.5033 48.9513 7.50999C48.9513 6.42356 48.4132 6.03038 47.0681 5.75102L46.4266 5.61651C45.5575 5.43026 45.3609 5.22332 45.3609 4.74736C45.3609 4.31279 45.7541 3.97134 46.5922 3.97134C47.182 3.97134 47.6372 4.20932 47.7717 4.67494C47.8235 4.87153 48.0097 4.9543 48.196 4.9543C48.2477 4.9543 48.3098 4.94396 48.3615 4.93361C48.5478 4.88187 48.7236 4.74736 48.7236 4.55077C48.7236 4.50938 48.7133 4.468 48.703 4.42661C48.4443 3.67128 47.7097 3.18498 46.5611 3.18498C45.2264 3.18498 44.4193 3.82649 44.4193 4.76806C44.4193 5.75102 44.947 6.19593 46.2197 6.44426L46.8095 6.55807Z" fill="#22222C"/>
<path d="M50.1221 8.72058C50.1221 8.99995 50.298 9.13446 50.5877 9.13446C50.8671 9.13446 51.0637 8.99995 51.0637 8.72058V3.68163C51.0637 3.41261 50.8671 3.2781 50.5877 3.2781C50.298 3.2781 50.1221 3.41261 50.1221 3.68163V8.72058ZM50.5981 0.939697C50.2049 0.939697 49.8945 1.23976 49.8945 1.63294C49.8945 2.03647 50.2049 2.33653 50.5981 2.33653C50.9809 2.33653 51.2913 2.03647 51.2913 1.63294C51.2913 1.23976 50.9809 0.939697 50.5981 0.939697Z" fill="#22222C"/>
<path d="M53.1576 3.34018H52.3609C52.1022 3.34018 51.9884 3.51608 51.9884 3.75406C51.9884 3.99204 52.1022 4.15759 52.3506 4.15759H53.1576V7.70658C53.1576 8.79301 53.7784 9.21723 54.6269 9.21723C55.0718 9.21723 55.3512 9.13446 55.6512 8.9896C55.8064 8.90683 55.8685 8.76197 55.8685 8.61711C55.8685 8.54468 55.8582 8.46191 55.8271 8.38948C55.7651 8.23428 55.6409 8.12046 55.4857 8.12046C55.4236 8.12046 55.3615 8.14115 55.2994 8.17219C55.1235 8.27566 54.9476 8.34809 54.689 8.34809C54.3061 8.34809 54.0889 8.13081 54.0889 7.62381V4.15759H55.4133C55.6616 4.15759 55.7961 3.99204 55.7961 3.75406C55.7961 3.50573 55.6719 3.34018 55.4133 3.34018H54.0889V2.08821C54.0889 1.81919 53.8923 1.67433 53.6232 1.67433C53.3335 1.67433 53.1576 1.81919 53.1576 2.08821V3.34018Z" fill="#22222C"/>
<path d="M56.7203 8.72058C56.7203 8.99995 56.8962 9.13446 57.1859 9.13446C57.4653 9.13446 57.6619 8.99995 57.6619 8.72058V3.68163C57.6619 3.41261 57.4653 3.2781 57.1859 3.2781C56.8962 3.2781 56.7203 3.41261 56.7203 3.68163V8.72058ZM57.1962 0.939697C56.8031 0.939697 56.4927 1.23976 56.4927 1.63294C56.4927 2.03647 56.8031 2.33653 57.1962 2.33653C57.5791 2.33653 57.8895 2.03647 57.8895 1.63294C57.8895 1.23976 57.5791 0.939697 57.1962 0.939697Z" fill="#22222C"/>
<path d="M61.6907 6.77536C61.5562 7.12716 61.3596 7.86179 61.2665 8.24462C61.1837 7.87213 60.9767 7.17889 60.8526 6.8271L59.6523 3.56782C59.5799 3.36088 59.4247 3.2781 59.2385 3.2781C59.1764 3.2781 59.104 3.28845 59.0315 3.30914C58.8349 3.36088 58.7004 3.51608 58.7004 3.71267C58.7004 3.76441 58.7108 3.81614 58.7315 3.87822L60.6353 8.71023C60.7595 9.03099 60.9767 9.13446 61.2561 9.13446C61.5251 9.13446 61.7528 9.04134 61.8769 8.72058L63.7808 3.87822C63.8118 3.81614 63.8222 3.75406 63.8222 3.70233C63.8222 3.50573 63.6876 3.37122 63.4807 3.30914C63.4083 3.28845 63.3462 3.2781 63.2841 3.2781C63.0979 3.2781 62.953 3.37122 62.8702 3.57816L61.6907 6.77536Z" fill="#22222C"/>
<path d="M69.1281 6.38218C69.4489 6.38218 69.6454 6.18559 69.6454 5.8131C69.6454 5.78206 69.6454 5.76136 69.6454 5.73032C69.542 4.37488 68.6935 3.19533 67.1829 3.19533C65.4963 3.19533 64.5651 4.4473 64.5651 6.23732C64.5651 8.02734 65.5481 9.22758 67.245 9.22758C68.5901 9.22758 69.1902 8.54468 69.5213 7.86179C69.5627 7.79971 69.573 7.73762 69.573 7.67554C69.573 7.4893 69.4282 7.36513 69.2523 7.3134C69.1798 7.29271 69.1074 7.27201 69.035 7.27201C68.8901 7.27201 68.7556 7.34444 68.6625 7.53069C68.4142 8.07907 68.0003 8.45156 67.2553 8.45156C66.1378 8.45156 65.5067 7.65485 65.486 6.38218H69.1281ZM65.517 5.62685C65.6515 4.61285 66.1896 3.95065 67.1829 3.95065C68.1348 3.95065 68.5797 4.70598 68.7039 5.44061C68.7039 5.4613 68.7039 5.482 68.7039 5.49234C68.7039 5.58546 68.6625 5.62685 68.5487 5.62685H65.517Z" fill="#22222C"/>
<path d="M35.6599 18.1467L32.3397 12.9626C32.1941 12.7442 32.0048 12.6568 31.8155 12.6568C31.6844 12.6568 31.5534 12.7005 31.4223 12.7587C31.1893 12.8898 31 13.1082 31 13.3558C31 13.4577 31.0291 13.5451 31.0874 13.647L34.9609 19.4427V23.5929C34.9609 23.9861 35.2376 24.1899 35.6599 24.1899C36.053 24.1899 36.3443 23.9861 36.3443 23.5929V19.4427L40.1887 13.6761C40.2615 13.5742 40.2906 13.4577 40.2906 13.3558C40.2906 13.1082 40.1159 12.8898 39.8974 12.7733C39.7664 12.7005 39.6353 12.6568 39.5042 12.6568C39.3004 12.6568 39.1111 12.7442 38.98 12.9626L35.6599 18.1467Z" fill="#22222C"/>
<path d="M45.8014 12.5403C42.6706 12.5403 40.7047 14.8557 40.7047 18.4234C40.7047 22.0348 42.6852 24.3356 45.8014 24.3356C48.9177 24.3356 50.869 22.0202 50.869 18.4379C50.869 14.8411 48.9177 12.5403 45.8014 12.5403ZM45.8014 13.7926C48.0149 13.7926 49.4274 15.5983 49.4274 18.3505C49.4274 21.2775 48.0731 23.0687 45.8014 23.0687C43.5734 23.0687 42.1464 21.2484 42.1464 18.4379C42.1464 15.6274 43.5443 13.7926 45.8014 13.7926Z" fill="#22222C"/>
<path d="M60.5628 20.2727C60.5628 21.9765 59.1794 23.0541 57.563 23.0541C55.3787 23.0541 53.8788 21.3795 53.8788 18.4379C53.8788 15.6129 55.2768 13.8072 57.5048 13.8072C59.1212 13.8072 59.8493 14.6663 60.2425 15.5401C60.3735 15.8313 60.5919 15.9332 60.8395 15.9332C60.956 15.9332 61.0871 15.9041 61.2036 15.8604C61.4365 15.7731 61.655 15.5692 61.655 15.278C61.655 15.176 61.6404 15.0886 61.5822 14.9721C61.0725 13.88 59.9221 12.5403 57.4902 12.5403C54.3157 12.5403 52.4226 15.0158 52.4226 18.4234C52.4226 21.9474 54.3303 24.321 57.5339 24.321C58.6552 24.321 59.6163 23.8696 60.1988 23.3308C60.3444 23.2143 60.5191 22.9522 60.6211 22.7774C60.5919 22.9667 60.5774 23.2288 60.5774 23.3745V23.7531C60.5774 24.088 60.8104 24.2919 61.2036 24.2919C61.5822 24.2919 61.8152 24.088 61.8152 23.6657V19.5592C61.8152 18.6709 61.4802 18.2923 60.6211 18.2923H58.2766C57.8834 18.2923 57.6941 18.569 57.6941 18.933C57.6941 19.2971 57.8834 19.5446 58.2766 19.5446H60.1842C60.49 19.5446 60.5628 19.7048 60.5628 19.9524V20.2727Z" fill="#22222C"/>
<path d="M65.7709 20.7824H70.8094L71.9598 23.7968C72.0617 24.0734 72.2947 24.2045 72.5568 24.2045C72.6442 24.2045 72.7316 24.1899 72.819 24.1608C73.1102 24.088 73.3432 23.8696 73.3432 23.5783C73.3432 23.491 73.3286 23.4181 73.2849 23.3308L69.3241 13.3558C69.1348 12.8606 68.7561 12.6713 68.2902 12.6713C67.8387 12.6713 67.4747 12.8606 67.2854 13.3558L63.3245 23.3017C63.2954 23.389 63.2808 23.4618 63.2808 23.5492C63.2808 23.8259 63.4992 24.0734 63.7905 24.1463C63.8924 24.1754 63.9798 24.1899 64.0817 24.1899C64.3293 24.1899 64.5477 24.0734 64.6496 23.7822L65.7709 20.7824ZM66.2078 19.5592L67.8533 15.3362C68.028 14.8993 68.1737 14.4334 68.3047 13.9382C68.4358 14.4334 68.596 14.8993 68.7561 15.3216L70.3725 19.5592H66.2078Z" fill="#22222C"/>
</svg>
