<svg width="48" height="48" viewBox="0 0 48 48" fill="none" xmlns="http://www.w3.org/2000/svg">
<rect opacity="0.24" x="15" width="32" height="32" rx="16" fill="#C8E6C9"/>
<path d="M36 6H40C41.1 6 42 6.9 42 8V45C42 46.1 41.1 47 40 47H8C6.9 47 6 46.1 6 45V8C6 6.9 6.9 6 8 6H12" stroke="#22222C" stroke-width="2" stroke-miterlimit="10"/>
<path d="M36 10H38V43H10V10H12" stroke="#22222C" stroke-width="2" stroke-miterlimit="10"/>
<path d="M31 5H28C28 2.79 26.21 1 24 1C21.79 1 20 2.79 20 5H17C15.34 5 14 6.34 14 8V11H34V8C34 6.34 32.66 5 31 5Z" stroke="#22222C" stroke-width="2" stroke-miterlimit="10"/>
<path d="M24 4V6" stroke="#22222C" stroke-width="2" stroke-miterlimit="10"/>
<path d="M15 20L17 22L21 18" stroke="#22222C" stroke-width="2" stroke-miterlimit="10"/>
<path d="M15 27L17 29L21 25" stroke="#22222C" stroke-width="2" stroke-miterlimit="10"/>
<path d="M15 34L17 36L21 32" stroke="#22222C" stroke-width="2" stroke-miterlimit="10"/>
<path d="M24 20H33" stroke="#22222C" stroke-width="2" stroke-miterlimit="10"/>
<path d="M24 27H33" stroke="#22222C" stroke-width="2" stroke-miterlimit="10"/>
<path d="M24 34H33" stroke="#22222C" stroke-width="2" stroke-miterlimit="10"/>
</svg>
