<svg width="49" height="48" viewBox="0 0 49 48" fill="none" xmlns="http://www.w3.org/2000/svg">
<rect opacity="0.24" x="16" width="32" height="32" rx="16" fill="#C8E6C9"/>
<path d="M6.72168 17.9734C6.72168 17.9734 5.21388 19.1089 3.20681 20.777C1.19973 22.4451 1.88873 25.0076 3.81592 27.2082C6.4321 30.2028 8.64887 31.8508 14.021 32.8356C17.6358 33.4988 19.0038 33.5691 21.4502 35.4583L22.958 36.835C24.2461 38.3926 28.1105 41.0053 30.5469 41.0053C32.9834 41.0053 38.9147 41.0053 40.2029 41.0053C43.1186 41.0053 44.8661 38.9151 45.9145 37.2571C46.304 36.6441 46.973 35.398 47.4223 34.1017" stroke="#22222C" stroke-width="2" stroke-miterlimit="10"/>
<path d="M7.54049 15.8732C7.08115 16.5665 6.6418 17.7623 6.53196 18.6667C6.07263 22.3044 11.6046 26.2435 13.9811 27.1077C17.3362 28.3236 20.6314 27.7006 23.7868 31.5593C26.9422 35.4181 31.186 36.9757 35.9491 36.9757C40.7121 36.9757 44.5865 37.0158 46.5037 35.4784C47.7219 34.2725 48.7005 31.087 47.3424 30.5444C45.6349 29.8611 41.4111 28.9567 39.0146 28.3638C37.3071 26.133 31.0262 16.7574 30.0277 14.3658C29.2488 12.5068 28.3302 12.3058 26.6426 12.9288C25.1348 13.4916 22.279 14.818 19.4232 12.4566C16.5673 10.0951 18.8939 8.36669 17.0566 8.14562C15.2293 7.92454 14.7 7.80396 13.2022 9.1706C12.014 10.2559 7.99982 15.1898 7.54049 15.8732Z" stroke="#22222C" stroke-width="2" stroke-miterlimit="10"/>
<path d="M32.9534 14.8683L26.9622 17.8829" stroke="#22222C" stroke-width="2" stroke-miterlimit="10"/>
<path d="M34.9505 17.8829L28.9592 20.8976" stroke="#22222C" stroke-width="2" stroke-miterlimit="10"/>
<path d="M36.9476 20.8976L30.9564 23.9122" stroke="#22222C" stroke-width="2" stroke-miterlimit="10"/>
<path d="M38.9447 23.9122L32.9534 26.9269" stroke="#22222C" stroke-width="2" stroke-miterlimit="10"/>
</svg>
