<svg width="48" height="48" viewBox="0 0 48 48" fill="none" xmlns="http://www.w3.org/2000/svg">
<rect opacity="0.24" x="16" y="5" width="32" height="32" rx="16" fill="#26C6DA"/>
<path d="M34 40H10C8.34 40 7 38.66 7 37V12C7 10.34 8.34 9 10 9H34C35.66 9 37 10.34 37 12V37C37 38.66 35.66 40 34 40Z" stroke="#22222C" stroke-width="2" stroke-miterlimit="10"/>
<path d="M11 9V2C11 1.45 11.45 1 12 1H32C32.55 1 33 1.45 33 2V9" stroke="#22222C" stroke-width="2" stroke-miterlimit="10"/>
<path d="M33 40V46C33 46.55 32.55 47 32 47H12C11.45 47 11 46.55 11 46V40" stroke="#22222C" stroke-width="2" stroke-miterlimit="10"/>
<path d="M37 15H40C40.55 15 41 15.45 41 16V22C41 22.55 40.55 23 40 23H37" stroke="#22222C" stroke-width="2" stroke-miterlimit="10"/>
<path d="M29.98 18.01C27.9 16.41 23.9 16.54 22 19.63C20.1 16.54 16.09 16.41 14.02 18.01C12.16 19.44 11.77 21.78 12.12 23.46C13.18 28.57 18.26 30.08 22.01 33.94C25.76 30.08 30.84 28.57 31.9 23.46C32.23 21.79 31.84 19.44 29.98 18.01Z" stroke="#22222C" stroke-width="2" stroke-miterlimit="10"/>
</svg>
