<svg width="24" height="25" viewBox="0 0 24 25" fill="none" xmlns="http://www.w3.org/2000/svg">
<path d="M16.59 8.29118L10 14.8812L6.41 11.3012L5 12.7112L10 17.7112L18 9.71118L16.59 8.29118ZM12 2.71118C6.48 2.71118 2 7.19118 2 12.7112C2 18.2312 6.48 22.7112 12 22.7112C17.52 22.7112 22 18.2312 22 12.7112C22 7.19118 17.52 2.71118 12 2.71118ZM12 20.7112C7.58 20.7112 4 17.1312 4 12.7112C4 8.29118 7.58 4.71118 12 4.71118C16.42 4.71118 20 8.29118 20 12.7112C20 17.1312 16.42 20.7112 12 20.7112Z" fill="#91B83D"/>
</svg>
